# xmcd
#
# Track frame offsets:
#	150
#	17173
#	27429
#	42892
#	52635
#	66396
#	83039
#	95314
#	108197
#	121295
#	128302
#	142810
#	156874
#	168793
#
# Disc length: 2327 seconds
#
# Revision: 0
# Processed by: cddbd v1.5.2PL0 Copyright (c) Steve Scherf et al.
# Submitted via: dBpowerAMP V4.0
#
DISCID=9f09150e
DTITLE=Micky Green - White T-Shirt
DYEAR=2007
DGENRE=Pop
TTITLE0=Oh !
TTITLE1=The catch
TTITLE2=Begin to fade
TTITLE3=Now it's gone
TTITLE4=Shoulda
TTITLE5=Some sun
TTITLE6=Empty tins
TTITLE7=White T-Shirt
TTITLE8=If the light
TTITLE9=Baby
TTITLE10=Dit it
TTITLE11=Nothing to prove
TTITLE12=Maybe
TTITLE13=Outro
EXTD=
EXTT0=
EXTT1=
EXTT2=
EXTT3=
EXTT4=
EXTT5=
EXTT6=
EXTT7=
EXTT8=
EXTT9=
EXTT10=
EXTT11=
EXTT12=
EXTT13=
PLAYORDER=
